Patient4_TMGait_0pt6_01_left_04_EMG.mot
version=1
nRows=30
nColumns=33
inDegrees=no
endheader
time	1LAddLong	2LGlutMax	3LGlutMed	4LIliopsoas	5LSemiMemb	6LBicFemLong	7LRecFem	8LVastMed	9LVastLat	10LGasMed	11LTibAnt	12lTibPost	13LPeroneusLong	14LSol	15LExtDigLong	16LFlexDigLong	17RAddLong	18RGlutMax	19RGlutMed	20RIliopsoas	21RSemiMemb	22RBicFemLong	23RRecFem	24RVastMed	25RVastLat	26RGasMed	27RTibAnt	28RTibPost	29RPeroneusLong	30RSol	31RExtDigLong	32RFlexDigLong
6.105	0.019379	-0.17303	-0.038452	-0.010223	0.039673	0.015411	-0.21515	0.002136	0.03418	-0.027161	0.004578	0.001984	-0.003204	-0.050964	0.11795	-0.001984	0.008087	-0.0737	0.018463	0.13748	-0.15564	0.055237	-0.10208	-0.086517	0.024261	0.000458	-0.13199	-0.027924	0.087891	0.34363	-0.00061	-0.006104
6.106	0.010223	-0.17807	-0.088043	-0.00061	0.012665	0.044403	-0.21698	0.00351	0.035095	-0.04303	0.015564	-0.004883	-0.005951	-0.042267	-0.02182	-0.010223	0.011292	-0.061188	-0.2861	0.14816	-0.16571	0.073395	-0.076294	-0.072327	-0.010223	0.023804	-0.14358	0.015411	0.18249	-0.10407	0.000305	-0.016479
6.107	0.005951	-0.19333	-0.07782	0.014954	0.011597	0.00946	-0.23544	0.005798	0.042419	-0.05127	0.024719	-0.011597	0.029755	-0.05722	-0.07309	-0.002289	-0.007172	-0.033264	-0.20859	0.075684	-0.11963	0.065155	-0.041351	-0.004578	-0.026703	0.010986	0.26062	0.015869	0.073547	-0.20996	-0.000916	-0.014191
6.108	0.012512	-0.20126	-0.041504	0.006256	0.035095	0.045776	-0.23453	0.011292	0.034485	-0.053406	0.007477	0.001221	0.041046	-0.067596	-0.045624	-0.005646	-0.016327	-0.098572	-0.32883	-0.075684	-0.072632	0.061035	-0.037079	0.022888	-0.062408	-0.059662	0.58075	-0.27405	-0.096283	0.34409	0.001678	-0.019836
6.109	0.00412	-0.21164	-0.06134	-0.002747	0.029144	0.022278	-0.22415	0.001984	0.048676	-0.043335	0.021667	0.00351	0.032806	-0.098724	-0.029144	-0.016479	-0.028381	-0.009308	0.24582	-0.13382	-0.025177	0.074615	-0.036621	0.050201	-0.025635	-0.049438	0.34943	-0.098267	-0.12482	0.27374	-0.00412	-0.019684
6.11	0.004578	-0.20676	-0.078125	0.009613	0.019226	0.043182	-0.2507	0.001984	0.023956	-0.057068	0.044556	-0.005798	-0.000305	-0.073853	-0.012512	-0.008545	0.000458	0.048218	0.15976	-0.11475	0.052795	0.017242	-0.10956	0.036469	0.05661	-0.036163	0.44952	0.17395	-0.016632	0.15747	-0.002594	-0.021515
6.111	0.007935	-0.2095	-0.1294	0.014496	0.0177	0.032043	-0.24277	0.002747	0.031891	-0.045319	0.037842	-0.001678	0.016479	-0.05249	0.01236	-0.014191	0.030518	0.028229	0.44373	-0.00412	0.025024	-0.11368	-0.057831	-0.019989	0.090332	-0.027771	0.27771	-0.1767	0.16296	-0.13428	-0.000916	-0.011902
6.112	0.007935	-0.20065	-0.10468	-0.000763	0.016327	0.035553	-0.23972	0.007935	0.037994	-0.05722	0.005951	-0.011139	0.085907	-0.063171	-0.012054	-0.009155	0.012817	0.060577	0.81589	0.12695	0.011292	-0.092163	-0.056152	-0.00885	0.074463	0.001068	-0.96146	0.008392	0.15793	-0.24612	0.001373	0.00061
6.113	0.005493	-0.2034	-0.014038	0.015106	-0.003357	0.046692	-0.24429	0.00412	0.037079	-0.059814	-0.044098	0.005798	0.084991	-0.038605	-0.019379	-0.016327	-0.015259	0.019531	0.40176	0.17288	-0.10101	-0.093079	-0.11673	0.008392	0.075378	0.053253	-0.96497	0.32181	0.1178	-0.097809	0.001373	-0.008545
6.114	0.001526	-0.20371	0.047913	-0.003662	-0.011139	0.032043	-0.2388	-0.001221	0.03891	-0.052643	0.072174	-0.003815	0.010376	-0.056152	0.049591	-0.010376	-0.003357	-0.039978	0.3067	-0.011597	-0.11231	0.049133	-0.08316	-0.028229	0.081482	0.03952	-0.16357	0.16327	0.09552	0.0383	0	-0.014191
6.115	0.006256	-0.23743	0.006104	0.010681	-0.00061	0.039825	-0.22583	-0.001678	0.039063	-0.061188	0.13184	-0.00473	-0.038757	-0.047455	0.16022	-0.003204	0.013885	-0.10513	0.062408	-0.037994	-0.084534	0.2977	-0.076752	-0.015869	0.018768	0.014191	0.054779	0.011444	-0.16266	0.4216	-0.002136	-0.011139
6.116	0.010071	-0.24658	-0.014038	0.000458	-0.009766	0.052032	-0.24231	-0.004578	0.025024	-0.061188	0.017548	-0.003967	-0.011749	-0.052795	-0.045319	0.001373	0.017242	-0.07431	0.039673	0.01709	-0.11948	0.47638	-0.16312	-0.064697	0.004425	0.008087	0.51605	-0.002747	-0.16754	0.69626	-0.002289	-0.007477
6.117	0.007172	-0.26398	-0.030365	-0.009766	-0.024109	0.045624	-0.23529	0.011597	0.028229	-0.062256	-0.215	-0.016022	0.011292	-0.059814	0.004883	-0.001678	0.012665	-0.071106	0.23132	0.048676	-0.1088	0.3244	-0.18112	-0.073395	-0.024109	0.005646	0.23834	-0.018005	0.033264	0.56885	-0.001221	-0.003357
6.118	0.005951	-0.23941	-0.061951	-0.011444	-0.041046	0.039063	-0.22446	0.00351	0.030823	-0.029144	-0.2092	-0.00412	0.000916	-0.082703	-0.019379	-0.003204	-0.016479	-0.084686	0.12711	0.12558	-0.14069	0.19623	-0.053101	-0.018311	0.012665	0.005493	-0.51666	-0.018768	-0.005798	0.26947	-0.006104	0.002136
6.119	0.014343	-0.25375	-0.10086	0.019531	-0.04425	0.044861	-0.23651	0.000763	0.037689	-0.039825	-0.055695	-0.008698	0.020294	-0.097961	-0.037079	-0.009003	-0.015259	-0.07431	0.090485	0.11139	-0.22583	0.082703	0.013733	0.011292	-0.037384	-0.045319	-0.41962	-0.00824	0.038147	-0.15457	-0.004883	0.00061
6.12	-0.005493	-0.22324	-0.031738	0.019531	-0.005646	0.044708	-0.24445	0.018616	0.029907	-0.045776	0.080719	-0.011597	0.066376	-0.10254	0.003815	-0.011749	-0.019684	-0.059052	-0.068665	0.021362	-0.095062	-0.077972	0.04715	0.012512	-0.00412	-0.054626	-0.007477	-0.018463	0.093231	-0.58579	-0.001373	0.001221
6.121	0.006714	-0.25223	-0.010681	-0.006409	0.049744	0.008545	-0.23239	-0.008545	0.036316	-0.052795	0.23529	-0.006409	0.054626	-0.10834	0.040131	0.002136	-0.022888	-0.077057	-0.21942	-0.000458	0.17303	-0.26413	0.066376	0.000763	-0.014191	-0.083466	-0.076904	-0.019836	0.12054	-0.49164	0.000305	0.003967
6.122	0.005188	-0.26977	0.041809	0.012512	0.03479	0.029907	-0.22049	0.011139	0.036011	-0.064697	-0.074921	-0.01236	0.049438	-0.090637	0.15579	-0.000305	0.006561	0.003204	-0.13748	0.005646	0.23422	-0.401	0.14297	-0.035858	-0.068665	-0.095825	-0.17563	-0.021667	0.017853	-0.22263	-0.001068	-0.004883
6.123	0.001984	-0.2359	-0.032501	0.009613	0.020752	0.041656	-0.22568	0.001373	0.028839	-0.057678	-0.034943	-0.013428	0.024261	-0.023193	0.18082	-0.018311	0.004425	0.000458	0.40039	0.007629	0.1001	-0.30182	-0.044403	-0.066071	-0.048676	-0.048065	0.28183	-0.023651	-0.089569	-0.14343	0.000916	-0.003967
6.124	0.003815	-0.24948	-0.052338	-0.000458	-0.015106	0.058594	-0.19974	-0.001984	0.03006	-0.063782	-0.014191	-0.0177	0.039368	0.010529	0.067596	-0.014038	0.010834	0.059357	-0.077209	0.027008	0.033569	-0.23117	-0.13565	-0.13992	0.029907	0.084839	0.64499	-0.023804	-0.22888	-0.079193	-0.000916	-0.011292
6.125	0.011597	-0.23575	-0.063019	-0.000763	-0.05722	0.041962	-0.19501	0	0.027771	-0.05249	0.022278	-0.027618	0.002899	0.005798	0.31662	-0.01358	0.024719	0.023651	-0.14481	-0.000458	-0.14191	-0.091095	-0.17624	-0.16174	0.036469	0.076752	0.39917	-0.017853	-0.15503	0.061646	-0.00061	-0.00946
6.126	-0.002899	-0.20538	-0.028839	-0.000458	-0.084076	0.047913	-0.21713	-0.002289	0.038147	-0.062866	0.10666	-0.015106	-0.007935	0.010681	-0.097198	-0.009308	0.044403	0.062256	-0.051117	0.003815	-0.33112	-0.10056	-0.17883	-0.18997	0.00351	-0.014496	0.17502	-0.025482	-0.15793	0.10254	0.000916	-0.009766
6.127	0.004272	-0.24735	-0.002136	0.00412	-0.04776	-0.010071	-0.19363	0.000305	0.032196	-0.043488	0.21469	-0.00473	-0.01358	0.007172	0.56869	-0.011749	0.061188	-0.07431	0.58365	-0.019836	-0.40756	-0.15152	-0.098419	-0.2066	-0.084076	-0.066376	0.14572	-0.034027	-0.22064	0.094299	0.009613	-0.010986
6.128	0.001068	-0.2742	0.020752	-0.006561	0.073242	-0.009308	-0.18784	0.000458	0.034485	-0.040588	0.23865	-0.021515	-0.033569	-0.016327	-0.22385	-0.012207	0.068665	-0.071411	0.55634	-0.031891	0.21088	-0.12787	-0.012665	-0.18082	0.19592	-0.056915	0.08667	-0.037537	-0.20554	0.035553	-0.001221	-0.011902
6.129	0.003204	-0.27405	0.008545	0.008392	0.072174	-0.00412	-0.18509	0.003357	0.027924	-0.039978	0.13748	-0.018005	-0.006714	-0.077972	-0.42129	0.000153	0.02533	-0.090485	0.14435	-0.006866	0.25635	0.056763	0.010223	-0.17761	0.35843	-0.046234	-0.41245	-0.04776	0.020294	-0.021362	-0.003052	-0.010223
6.13	0.000763	-0.30945	-0.038605	0.006256	0.052643	0.011139	-0.19119	0.000458	0.037537	-0.040588	-0.037079	-0.019226	0.00946	-0.046387	-0.24078	-0.010834	-0.027313	-0.054016	0.044098	0.013428	-0.024719	0.47363	0.017395	-0.059357	0.41504	-0.041504	-0.20126	-0.020294	0.2681	-0.20584	-0.00061	-0.019073
6.131	0.002899	-0.31082	-0.046692	-0.00061	0.018158	0.029144	-0.17014	0.004883	0.037689	-0.045471	-0.16312	-0.013428	0.026093	-0.037537	-0.2713	-0.002899	-0.031281	-0.089874	0.37888	0.005951	-0.020599	0.867	0.00885	-0.15091	0.40009	-0.026093	0.43274	0.066681	0.29129	-0.26382	0.005035	-0.016327
6.132	0.003357	-0.35721	-0.052948	-0.011444	0.01297	0.040436	-0.16937	0.004578	0.037231	-0.042572	-0.079193	-0.014191	0.013885	-0.07782	-0.2243	-0.005493	-0.031891	-0.10773	0.43472	-0.00885	-0.033875	0.69351	-0.14267	0.020142	0.4039	-0.042725	0.27603	-0.000916	0.24933	-0.23315	-0.001678	-0.006256
6.133	-0.000153	-0.3125	-0.054321	-0.00473	0.0177	0.056763	-0.18295	0.001526	0.030823	-0.021973	0.019836	-0.005951	0.007172	-0.053406	-0.15793	-0.016785	-0.019379	0.02182	0.28946	-0.019226	0.14404	0.58441	-0.038757	0.14358	0.29327	-0.038452	0.094604	-0.023193	0.083008	0.058441	-0.001221	-0.01297
6.134	-0.002136	-0.34988	-0.012207	0.008392	0.011749	0.071411	-0.1712	0.002747	0.032654	-0.034027	0.059509	-0.007477	-0.001526	-0.077209	-0.10956	-0.007477	-0.005035	0.044708	0.28915	-0.031128	0.012665	0.39642	0.052032	0.13321	-0.23956	0.043488	-0.45395	-0.009613	-0.0354	0.28824	-0.001526	-0.001373
